<svg width="80" height="80" viewBox="0 0 80 80" fill="none" xmlns="http://www.w3.org/2000/svg">
<path d="M48.6603 2.13338L71.3397 14.1715C76.6987 17.016 80 22.2729 80 27.9619V52.0381C80 57.7271 76.6987 62.984 71.3397 65.8285L48.6603 77.8666C43.3013 80.7111 36.6987 80.7111 31.3397 77.8666L8.66025 65.8285C3.30127 62.984 0 57.7271 0 52.0381V27.9619C0 22.2729 3.30127 17.016 8.66025 14.1715L31.3397 2.13338C36.6987 -0.711127 43.3013 -0.711127 48.6603 2.13338ZM34.8293 6.43168L34.2265 6.73018L11.547 18.7683C8.16238 20.5648 6.00897 23.8048 5.79167 27.3656L5.7735 27.9619V52.0381C5.7735 55.6312 7.74878 58.9657 10.9944 60.9191L11.547 61.2317L34.2265 73.2698C37.6007 75.0608 41.7143 75.1603 45.1707 73.5683L45.7735 73.2698L68.453 61.2317C71.8376 59.4352 73.991 56.1952 74.2083 52.6344L74.2265 52.0381V27.9619C74.2265 24.3688 72.2512 21.0343 69.0056 19.0809L68.453 18.7683L45.7735 6.73018C42.3993 4.93919 38.2857 4.83969 34.8293 6.43168ZM60.2659 28.2094C61.0144 29.5036 60.48 31.1106 59.0723 31.7987L42.8535 39.7257L42.8536 57.6902C42.8536 59.1559 41.5612 60.3441 39.9669 60.3441C38.3726 60.3441 37.0801 59.1559 37.0801 57.6902L37.08 39.7257L20.8614 31.7987C19.4538 31.1106 18.9194 29.5036 19.6678 28.2094C20.4163 26.9153 22.1643 26.424 23.5719 27.1121L39.9668 35.1237L56.3618 27.1121C57.7695 26.424 59.5174 26.9153 60.2659 28.2094Z" fill="white"/>
</svg>
